<svg width="239" height="394" viewBox="0 0 239 394" fill="none" xmlns="http://www.w3.org/2000/svg">
<path fill-rule="evenodd" clip-rule="evenodd" d="M99.849 1.84444C59.974 10.226 25.43 42.2544 19.423 76.4143C18.902 79.3721 18.375 80.0096 16.45 80.0096C14.043 80.0096 10.922 81.3222 7.329 83.8447C-7.163 94.0191 1.597 134.659 18.282 134.659C22.742 134.659 24.077 210.196 19.833 222.364C3.236 269.941 13.896 327.941 36.69 314.081C42.531 310.53 46.881 316.391 46.881 327.815C46.881 332.752 50.517 354.967 52.378 361.407C52.82 362.935 51.818 363.991 47.437 366.609C40.977 370.471 38.36 374.738 39.245 379.967C42.328 398.178 115.4 397.322 115.955 379.07C116.01 377.265 115.731 365.65 115.335 353.258C114.668 332.392 115.543 314.572 117.47 309.758C118.407 307.417 121.755 307.825 122.354 310.353C125.179 322.267 126.051 356.784 123.889 371.104C122.254 381.935 125.227 387.77 133.78 390.516C139.441 392.335 187.687 391.989 192.411 390.096C205.243 384.955 202.469 369.302 187.713 363.583C187.345 363.442 187.851 359.63 188.837 355.114C189.823 350.597 191.448 339.77 192.449 331.053C194.324 314.713 197.022 310.403 203.072 314.081C225.576 327.765 236.008 272.876 220.344 223.206C215.473 207.761 216.688 134.659 221.816 134.659C234.587 134.659 238.884 127.965 238.875 108.084C238.867 87.8945 234.472 80.0096 223.227 80.0096C221.602 80.0096 220.881 79.4584 220.881 78.2168C220.881 70.3789 210.448 49.3273 200.409 36.9074C178.417 9.6996 134.811 -5.50449 99.849 1.84444ZM134.281 9.58934C165.485 15.317 189.322 31.4252 203.291 56.2217C206.239 61.4566 206.216 63.7758 203.263 58.983C202.266 57.3646 201.097 56.0405 200.665 56.0405C200.234 56.0405 199.873 55.5017 199.862 54.8421C199.824 52.403 177.73 33.0302 174.987 33.0302C174.379 33.0302 173.881 32.6438 173.881 32.1721C173.881 30.9621 158.621 23.8759 151.031 21.5624C121.963 12.6996 83.414 18.7858 63.217 35.4271C62.577 35.9544 60.552 37.4597 58.717 38.7722C48.577 46.0234 35.137 62.7308 30.213 74.2072C27.602 80.2915 27.299 79.7939 29.277 72.6703C40.576 31.9851 91.062 1.65557 134.281 9.58934ZM137.381 27.2105C141.231 27.827 145.281 28.7148 146.381 29.1827C147.481 29.6505 149.506 30.337 150.881 30.709C155.762 32.0292 169.868 38.9649 172.66 41.4194C173.41 42.078 174.364 42.6178 174.779 42.6178C176.402 42.6178 191.911 58.1115 195.577 63.3952C209.541 83.5187 215.062 110.146 209.061 128.427C207.004 134.693 203.053 142.679 204.318 138.015C213.794 103.068 202.91 70.2533 174.42 47.8699C172.085 46.0358 169.659 44.5354 169.028 44.5354C168.397 44.5354 167.881 44.1854 167.881 43.7578C167.881 43.0828 156.158 37.0896 150.381 34.8116C144.646 32.5508 126.65 29.2958 119.881 29.2958C112.064 29.2958 92.43 33.1002 90.431 35.0024C89.908 35.5 88.871 35.9065 88.126 35.9065C86.636 35.9065 77.679 39.6313 76.881 40.5833C76.161 41.4414 72.748 43.4289 70.13 44.5143C68.892 45.0272 63.702 49.449 58.597 54.3397C41.503 70.7144 33.56 87.9137 31.908 112.128C31.188 122.675 31.188 122.675 31.052 112.128C30.734 87.4976 40.302 66.2216 59.257 49.4116C61.389 47.5209 63.977 45.218 65.007 44.2957C66.038 43.3733 67.124 42.6178 67.421 42.6178C67.937 42.6178 73.833 38.8288 74.881 37.824C75.495 37.2353 81.164 34.615 85.881 32.7387C93.32 29.78 98.657 28.3255 105.839 27.3025C109.941 26.7177 113.541 26.0034 113.839 25.7138C114.612 24.9651 129.116 25.8864 137.381 27.2105ZM141.881 41.1337C225.588 66.7653 212.362 184.592 125.293 188.92C32.437 193.535 8.188 70.166 96.381 41.8278C107.344 38.3053 131.442 37.9381 141.881 41.1337ZM86.024 49.8402C77.201 56.9581 82.619 70.422 94.307 70.422C101.207 70.422 107.237 62.3099 105.44 55.4442C103.434 47.7836 92.49 44.6236 86.024 49.8402ZM95.841 56.4739C97.763 58.6944 96.695 61.3137 93.867 61.3137C92.008 61.3137 91.296 60.7366 91.044 59.0252C90.543 55.6321 93.672 53.9677 95.841 56.4739ZM70.631 65.33C69.668 65.5716 68.881 66.1689 68.881 66.6569C68.881 67.1459 68.341 67.5457 67.682 67.5457C61.032 67.5457 46.106 95.1485 48.275 103.435C51.459 115.597 66.77 113.824 69.875 100.936C71.42 94.5234 74.804 88.7852 79.246 85.046C90.196 75.8285 84.131 61.9475 70.631 65.33ZM76.881 74.885C76.881 75.1171 74.712 77.3865 72.061 79.9291C67.008 84.7728 62.646 92.4065 61.488 98.4323C60.737 102.342 59.281 103.787 57.659 102.232C55.771 100.422 60.792 85.7843 64.557 82.1199C65.261 81.4344 66.409 80.1285 67.109 79.2167C70.249 75.1266 76.881 72.1871 76.881 74.885ZM16.897 99.904C16.906 106.401 17.526 113.605 18.361 116.922C20.766 126.473 18.859 128.943 12.742 124.2C9.191 121.447 8.513 95.3585 11.885 91.2483C16.064 86.1544 16.88 87.5628 16.897 99.904ZM227.808 91.1649C234.207 98.9644 229.889 126.03 222.246 126.03C219.507 126.03 219.475 125.708 221.381 117.401C222.167 113.974 222.827 106.101 222.846 99.904C222.884 87.6098 223.705 86.164 227.808 91.1649ZM40.068 161.776C44.055 166.361 44.055 166.361 40.511 170.121C34.931 176.043 32.662 181.21 31.873 189.788C31.379 195.164 31.125 190.319 31.025 173.595C30.881 149.732 30.881 149.732 33.481 153.461C34.911 155.512 37.876 159.253 40.068 161.776ZM208.73 173.729C208.63 188.844 208.355 194.082 207.911 189.309C207.133 180.935 204.51 174.913 199.478 169.945C195.817 166.331 196.156 164.864 201.868 159.587C202.153 159.323 203.684 157.275 205.27 155.033C206.856 152.791 208.317 150.958 208.517 150.958C208.717 150.958 208.813 161.206 208.73 173.729ZM67.144 184.014C70.975 185.958 71.663 187.217 69.847 188.958C69.278 189.503 66.656 194.013 64.021 198.977C58.728 208.95 58.762 208.934 51.089 205.436C42.377 201.466 38.342 189.508 42.938 181.286C47.714 172.742 49.717 172.25 57.336 177.742C60.675 180.149 65.089 182.971 67.144 184.014ZM193.312 176.229C203.168 186.249 198.895 203.237 185.578 206.978C180.775 208.327 180.775 208.327 177.524 201.934C175.736 198.418 173.055 193.554 171.567 191.127C168.862 186.712 168.862 186.712 175.121 182.802C178.564 180.651 182.956 177.586 184.881 175.99C189.29 172.334 189.486 172.34 193.312 176.229ZM96.949 195.74C104.744 198.09 135.011 198.092 142.801 195.743C149.48 193.73 150.262 194.208 145.225 197.228C137.863 201.642 110.794 204.949 107.542 201.831C106.958 201.271 105.642 200.814 104.617 200.814C102.308 200.814 92.306 196.497 91.416 195.116C90.577 193.813 90.548 193.81 96.949 195.74ZM84.366 200.791C92.69 213.704 136.045 214.778 153.025 202.492C158.153 198.781 158.244 198.898 157.498 208.244C155.435 234.091 147.009 260.231 137.627 269.885C134.64 272.959 105.147 272.726 102.176 269.605C98.759 266.015 92.162 253.535 89.378 245.397C83.479 228.149 79.569 193.349 84.366 200.791ZM75.798 228.139C79.235 244.342 83.14 255.59 88.863 265.774C91.693 270.812 91.693 270.812 89.289 271.391C85.404 272.325 84.201 271.255 83.508 266.247C81.463 251.462 58.908 252.284 57.156 267.208C56.861 269.714 56.215 271.763 55.72 271.763C49.943 271.763 60.869 223.334 70.753 205.128C73.356 200.335 73.356 200.335 73.967 211.36C74.303 217.425 75.127 224.975 75.798 228.139ZM173.571 215.195C177.781 225.332 184.881 252.232 184.881 258.046C184.881 258.208 180.675 258.34 175.535 258.34C162.563 258.34 158.158 260.568 156.953 267.738C156.402 271.02 156.079 271.305 152.619 271.58C148.001 271.949 148.002 271.912 152.804 262.068C159.79 247.745 163.084 236.293 164.908 219.989C167.229 199.247 166.795 200.688 169.238 205.608C170.417 207.981 172.367 212.295 173.571 215.195ZM41.931 209.783C44.836 212.288 48.598 214.449 51.328 215.181C56.408 216.544 56.432 216.593 54.497 221.648C52.672 226.418 50.305 235.033 48.303 244.198C46.686 251.6 37.637 254.82 30.117 250.67C29.162 250.143 27.144 249.291 25.631 248.776C21.032 247.211 23.977 232.819 33.041 212.559C36.715 204.347 35.914 204.597 41.931 209.783ZM207.599 214.956C211.42 223.964 213.271 229.586 216.269 241.287C217.815 247.321 217.46 248.095 212.616 249.26C211.101 249.626 209.615 250.307 209.313 250.776C206.615 254.96 192.957 251.302 191.914 246.116C190.3 238.093 186.93 225.156 185.296 220.718C184.518 218.603 183.881 216.778 183.881 216.665C183.881 216.551 185.791 215.909 188.125 215.239C192.726 213.916 200.443 209.043 201.292 206.923C202.395 204.167 203.759 205.904 207.599 214.956ZM111.685 215.954C96.924 225.287 102.563 245.876 119.881 245.876C136.468 245.876 143.016 226.346 129.562 217.002C124.698 213.623 116.162 213.124 111.685 215.954ZM125.808 225.392C130.131 230.661 126.828 237.247 119.862 237.247C115.609 237.247 113.202 235.192 112.281 230.776C110.878 224.052 121.304 219.902 125.808 225.392ZM27.952 258.843C30.329 259.648 35.336 260.36 39.078 260.426C45.861 260.546 45.881 260.555 45.881 263.278C45.881 266.068 31.112 267.736 29.435 265.135C29.124 264.653 27.073 263.968 24.876 263.612C21.285 263.03 20.881 262.683 20.881 260.173C20.881 256.941 21.812 256.767 27.952 258.843ZM218.881 260.246C218.881 262.85 218.514 263.167 214.859 263.728C212.647 264.067 210.595 264.72 210.3 265.177C208.684 267.683 193.881 266.057 193.881 263.373C193.881 260.757 193.936 260.735 201.212 260.519C205.244 260.399 210.082 259.661 211.962 258.879C217.354 256.635 218.881 256.937 218.881 260.246ZM72.947 265.085C76.077 266.691 75.903 297.058 72.755 298.673C66.282 301.994 61.199 268.719 67.631 265.128C69.869 263.878 70.583 263.872 72.947 265.085ZM170.881 280.973C170.881 292.477 166.751 301.85 165.751 292.616C165.208 287.602 166.296 268.289 167.15 267.777C170.263 265.907 170.881 268.091 170.881 280.973ZM185.659 280.631C185.937 293.814 185.937 293.814 182.909 293.814C179.985 293.814 177.894 270.152 180.59 267.567C184.15 264.155 185.378 267.321 185.659 280.631ZM27.881 273.722C29.806 274.201 34.419 274.603 38.131 274.616C44.881 274.639 44.881 274.639 44.881 290.492C44.881 305.756 44.81 306.31 42.986 305.373C40.844 304.274 38.881 299.633 38.881 295.667C38.881 290.098 34.971 287.848 31.753 291.565C30.385 293.146 30.185 300.747 31.414 304.459C33.184 309.807 27.13 306.292 25.052 300.765C20.403 288.402 18.643 271.178 22.131 272.195C23.368 272.555 25.956 273.243 27.881 273.722ZM219.881 272.518C219.881 285.585 214.168 306.277 210.559 306.28C208.497 306.281 208.381 305.858 208.381 298.37C208.381 286.65 201.881 285.892 200.401 297.438C199.722 302.735 197.749 306.277 195.476 306.279C194.715 306.28 194.471 301.456 194.678 290.459C194.974 274.639 194.974 274.639 202.678 274.565C206.914 274.525 212.181 273.923 214.381 273.228C219.38 271.648 219.881 271.583 219.881 272.518ZM56.881 282.366C56.881 283.389 56.206 284.227 55.381 284.227C53.898 284.227 53.284 281.283 54.52 280.098C55.563 279.098 56.881 280.365 56.881 282.366ZM152.631 280.204C172.657 282.04 143.691 284.562 107.492 284.134C86.672 283.887 83.951 283.545 83.896 281.16C83.865 279.801 139.752 279.022 152.631 280.204ZM57.15 296.657C59.388 312.66 83.881 311.401 83.881 295.283C83.881 291.1 156.418 291.53 157.378 295.718C158.558 300.871 162.186 302.34 174.486 302.649C186.612 302.953 186.657 303.082 183.726 328.9C182.335 341.15 183.118 340.794 157.625 340.794C133.635 340.794 133.881 340.884 133.881 332.063C133.881 304.972 125.053 292.291 112.977 302.034C109.101 305.16 108.01 309.071 106.349 325.781C104.738 341.999 107.316 340.26 84.375 340.611C54.262 341.071 56.864 343.338 54.874 314.907C53.438 294.387 55.037 281.558 57.15 296.657ZM105.116 349.902C107.897 353.532 105.886 360.665 101.631 362.263C94.349 364.998 89.829 369.966 87.708 377.567C86.406 382.236 52.621 384.903 48.921 380.628C46.473 377.8 52.915 371.474 58.244 371.474C59.119 371.474 60.503 370.497 61.319 369.302C62.868 367.035 62.949 367.739 59.268 351.34C58.693 348.78 103.187 347.385 105.116 349.902ZM180.88 349.423C180.878 350.501 177.852 363.721 177.279 365.151C176.577 366.906 179.329 371.474 181.088 371.474C186.593 371.474 193.309 377.777 190.841 380.628C187.525 384.46 153.113 382.34 152.394 378.26C151.22 371.6 146.766 366.187 139.956 363.149C123.065 355.613 131.246 348.943 157.381 348.943C170.306 348.943 180.881 349.159 180.88 349.423ZM107.064 372.673C107.554 381.009 106.831 381.983 100.131 382.006C95.329 382.022 94.968 381.222 97.631 376.474C99.21 373.66 104.229 369.579 106.131 369.563C106.543 369.559 106.963 370.958 107.064 372.673ZM137.407 371.489C140.383 373.253 143.881 378.373 143.881 380.967C143.881 381.576 141.991 382.021 139.404 382.021C133.678 382.021 131.723 379.621 132.569 373.631C133.235 368.915 133.136 368.959 137.407 371.489Z" fill="url(#paint0_linear_203_1236)"/>
<defs>
<linearGradient id="paint0_linear_203_1236" x1="-15" y1="-0.462008" x2="213.003" y2="462.54" gradientUnits="userSpaceOnUse">
<stop stop-color="#F7B1F8"/>
<stop offset="1" stop-color="#520C89"/>
</linearGradient>
</defs>
</svg>
