<svg xmlns="http://www.w3.org/2000/svg" xmlns:xlink="http://www.w3.org/1999/xlink" width="500" zoomAndPan="magnify" viewBox="0 0 375 374.999991" height="500" preserveAspectRatio="xMidYMid meet" version="1.0"><defs><clipPath id="a63be9b180"><path d="M 79 0 L 296.25 0 L 296.25 375 L 79 375 Z M 79 0 " clip-rule="nonzero"/></clipPath><clipPath id="f8c260b0c2"><path d="M 92.730469 127.515625 L 98.242188 127.515625 L 98.054688 207.980469 C 94.429688 217.75 91.792969 228.191406 90.226562 238.632812 C 90.089844 239.007812 90.03125 239.382812 90.050781 239.769531 C 89.402344 244.324219 88.96875 248.855469 88.742188 253.328125 C 88.574219 253.863281 88.515625 254.414062 88.652344 254.9375 C 88.046875 270.035156 89.878906 284.234375 94.511719 295.144531 C 95.890625 298.386719 98.632812 300.746094 102.03125 301.621094 C 102.964844 301.859375 103.902344 301.980469 104.828125 301.980469 C 107.289062 301.980469 109.6875 301.15625 111.683594 299.589844 L 112.007812 299.335938 C 113.882812 300.480469 116.128906 301.074219 118.75 301.074219 C 119.1875 301.074219 119.65625 301.027344 120.117188 300.992188 C 121.699219 327.230469 125.355469 344.25 126.957031 350.664062 C 123.726562 351.804688 120.820312 353.355469 118.273438 355.289062 C 114.507812 358.15625 113.058594 362.925781 114.582031 367.441406 C 116.132812 372.03125 120.242188 375 125.0625 375 L 171.128906 375 C 174.695312 375 178.074219 373.453125 180.40625 370.757812 C 182.75 368.039062 183.792969 364.4375 183.269531 360.875 C 180.144531 339.707031 180.433594 318.367188 184.117188 297.445312 C 184.398438 295.820312 185.839844 294.644531 187.539062 294.644531 C 189.238281 294.644531 190.679688 295.820312 190.964844 297.449219 C 194.644531 318.367188 194.933594 339.707031 191.8125 360.878906 C 191.285156 364.441406 192.332031 368.042969 194.675781 370.757812 C 197.007812 373.453125 200.386719 375 203.957031 375 L 250.019531 375 C 254.835938 375 258.953125 372.03125 260.5 367.441406 C 262.023438 362.925781 260.574219 358.15625 256.808594 355.289062 C 254.269531 353.355469 251.355469 351.804688 248.125 350.664062 C 249.726562 344.25 253.382812 327.230469 254.96875 300.992188 C 255.425781 301.027344 255.894531 301.074219 256.332031 301.074219 C 258.953125 301.074219 261.199219 300.476562 263.078125 299.335938 L 263.402344 299.59375 C 265.394531 301.160156 267.792969 301.980469 270.253906 301.980469 C 271.183594 301.980469 272.121094 301.863281 273.050781 301.625 C 276.457031 300.75 279.195312 298.390625 280.570312 295.144531 C 285.203125 284.238281 287.03125 270.035156 286.429688 254.941406 C 286.566406 254.414062 286.507812 253.863281 286.339844 253.324219 C 286.109375 248.851562 285.679688 244.324219 285.03125 239.769531 C 285.050781 239.382812 284.988281 239.003906 284.855469 238.628906 C 283.289062 228.1875 280.648438 217.746094 277.027344 207.980469 L 276.835938 127.511719 L 282.34375 127.511719 C 289.90625 127.511719 296.058594 121.359375 296.058594 113.796875 L 296.058594 90.984375 C 296.058594 83.421875 289.90625 77.269531 282.34375 77.269531 L 280.339844 77.269531 C 272.261719 33.375 233.738281 0 187.539062 0 C 141.339844 0 102.816406 33.375 94.742188 77.273438 L 92.730469 77.273438 C 85.167969 77.273438 79.019531 83.425781 79.019531 90.988281 L 79.019531 113.800781 C 79.019531 121.363281 85.167969 127.515625 92.730469 127.515625 Z M 104.007812 107.179688 C 104.007812 60.550781 141.941406 22.613281 188.570312 22.613281 C 235.203125 22.613281 273.136719 60.550781 273.136719 107.179688 C 273.136719 111.507812 272.792969 115.84375 272.144531 120.089844 C 268.6875 131.449219 263.007812 141.847656 255.601562 150.769531 C 263.179688 138.542969 267.570312 124.144531 267.570312 108.730469 C 267.570312 64.605469 231.667969 28.703125 187.539062 28.703125 C 143.410156 28.703125 107.507812 64.605469 107.507812 108.730469 C 107.507812 124.144531 111.898438 138.542969 119.476562 150.769531 C 115.015625 145.394531 111.179688 139.480469 108.078125 133.144531 C 105.382812 124.792969 104.007812 116.054688 104.007812 107.179688 Z M 271.304688 209.550781 C 271.308594 209.554688 271.308594 209.558594 271.3125 209.566406 C 274.75 218.65625 277.28125 228.367188 278.84375 238.101562 C 270.808594 242.867188 262.585938 244.375 253.835938 242.695312 C 251.859375 228.386719 248.484375 216.246094 244.820312 206.382812 C 253.097656 206.0625 260.292969 201.242188 264.265625 194.15625 C 266.921875 198.964844 269.261719 204.144531 271.304688 209.550781 Z M 280.429688 252.488281 C 273.234375 256.316406 264.78125 257.742188 255.238281 256.730469 C 255.070312 254.042969 254.859375 251.410156 254.59375 248.855469 C 256.59375 249.148438 258.589844 249.34375 260.5625 249.34375 C 267.144531 249.34375 273.550781 247.6875 279.726562 244.445312 C 280.042969 247.144531 280.273438 249.824219 280.429688 252.488281 Z M 95.351562 244.441406 C 101.527344 247.683594 107.929688 249.339844 114.515625 249.339844 C 116.488281 249.339844 118.480469 249.144531 120.484375 248.851562 C 120.21875 251.40625 120.007812 254.042969 119.839844 256.726562 C 110.292969 257.738281 101.839844 256.3125 94.644531 252.484375 C 94.804688 249.824219 95.035156 247.144531 95.351562 244.441406 Z M 103.765625 209.566406 C 103.769531 209.558594 103.769531 209.554688 103.769531 209.550781 C 105.816406 204.144531 108.15625 198.964844 110.8125 194.15625 C 114.789062 201.242188 121.980469 206.0625 130.257812 206.382812 C 126.597656 216.246094 123.222656 228.386719 121.242188 242.695312 C 112.488281 244.375 104.269531 242.867188 96.234375 238.101562 C 97.792969 228.371094 100.332031 218.65625 103.765625 209.566406 Z M 248.699219 249.875 L 230.855469 249.875 C 226.292969 249.875 222.582031 253.589844 222.582031 258.15625 L 222.582031 261.546875 L 211.132812 261.546875 C 223.59375 242.824219 229.617188 218.503906 229.457031 187.644531 C 235.761719 198.597656 245.574219 219.824219 248.699219 249.875 Z M 171.21875 261.542969 C 157.890625 243.476562 151.429688 219.277344 151.570312 187.863281 C 157.109375 194.421875 167.730469 201.824219 187.539062 201.824219 C 207.347656 201.824219 217.96875 194.421875 223.507812 187.863281 C 223.648438 219.28125 217.1875 243.476562 203.859375 261.542969 Z M 141.910156 246.542969 C 135.59375 246.542969 130.457031 251.679688 130.457031 257.996094 L 130.457031 261.542969 L 125.554688 261.542969 C 127.011719 225.296875 138.53125 199.960938 145.617188 187.640625 C 145.457031 218.496094 151.480469 242.820312 163.941406 261.542969 L 153.363281 261.542969 L 153.363281 257.996094 C 153.363281 251.679688 148.226562 246.542969 141.910156 246.542969 Z M 191.652344 188.660156 C 201.457031 188.238281 210.882812 186.320312 219.695312 183.117188 C 215.320312 188.746094 206.121094 195.871094 187.539062 195.871094 C 168.953125 195.871094 159.757812 188.742188 155.382812 183.117188 C 164.199219 186.320312 173.621094 188.234375 183.429688 188.660156 C 184.792969 188.730469 186.160156 188.765625 187.542969 188.765625 C 188.921875 188.765625 190.289062 188.730469 191.652344 188.660156 Z M 187.539062 182.8125 C 146.691406 182.8125 113.460938 149.582031 113.460938 108.734375 C 113.460938 67.890625 146.691406 34.65625 187.539062 34.65625 C 228.386719 34.65625 261.617188 67.890625 261.617188 108.734375 C 261.617188 149.582031 228.386719 182.8125 187.539062 182.8125 Z M 124.078125 164.183594 C 130.171875 169.730469 137.007812 174.46875 144.398438 178.285156 C 141.789062 182.082031 137.195312 189.503906 132.644531 200.332031 C 132.136719 200.382812 131.632812 200.476562 131.117188 200.476562 C 121.382812 200.476562 113.460938 191.96875 113.460938 181.515625 C 113.460938 173.898438 117.679688 167.175781 124.078125 164.183594 Z M 125.386719 267.496094 L 130.457031 267.496094 L 130.457031 273.988281 L 125.316406 273.988281 C 125.320312 271.867188 125.347656 269.695312 125.386719 267.496094 Z M 136.40625 258 C 136.40625 254.96875 138.875 252.5 141.910156 252.5 C 144.945312 252.5 147.414062 254.96875 147.414062 258 L 147.414062 283.671875 C 147.414062 286.707031 144.945312 289.171875 141.910156 289.171875 C 138.875 289.171875 136.40625 286.707031 136.40625 283.671875 Z M 153.363281 267.496094 L 222.582031 267.496094 L 222.582031 273.988281 L 153.363281 273.988281 Z M 228.53125 258.152344 C 228.53125 256.867188 229.578125 255.824219 230.855469 255.824219 L 235.851562 255.824219 L 235.851562 283.644531 L 230.855469 283.644531 C 229.574219 283.644531 228.53125 282.601562 228.53125 281.320312 Z M 241.804688 255.828125 L 249.207031 255.828125 C 249.410156 258.679688 249.5625 261.59375 249.636719 264.59375 C 249.796875 271.292969 249.800781 277.648438 249.683594 283.648438 L 241.804688 283.648438 Z M 243.957031 200.472656 C 243.445312 200.472656 242.945312 200.378906 242.429688 200.332031 C 237.882812 189.503906 233.289062 182.082031 230.679688 178.28125 C 238.070312 174.46875 244.90625 169.730469 251 164.179688 C 257.394531 167.171875 261.617188 173.898438 261.617188 181.511719 C 261.617188 191.96875 253.695312 200.472656 243.957031 200.472656 Z M 104.167969 138.558594 C 108.320312 146.355469 113.53125 153.492188 119.605469 159.804688 C 112.242188 164.144531 107.507812 172.359375 107.507812 181.515625 C 107.507812 183.40625 107.726562 185.238281 108.105469 187.007812 C 106.671875 189.339844 105.324219 191.78125 104.039062 194.292969 Z M 114.472656 293.832031 C 112.507812 292.140625 111.640625 288.367188 111.96875 282.917969 C 112.066406 281.277344 110.816406 279.867188 109.175781 279.765625 C 107.535156 279.640625 106.128906 280.914062 106.023438 282.554688 C 105.707031 287.832031 106.351562 291.910156 107.949219 294.941406 C 106.679688 295.917969 105.058594 296.257812 103.507812 295.855469 C 101.917969 295.445312 100.632812 294.339844 99.980469 292.816406 C 96.042969 283.546875 94.292969 271.71875 94.414062 259.019531 C 100.328125 261.679688 106.863281 263.035156 113.980469 263.035156 C 115.792969 263.035156 117.65625 262.917969 119.542969 262.742188 C 119.527344 263.316406 119.492188 263.871094 119.480469 264.445312 C 119.378906 268.757812 119.355469 272.871094 119.367188 276.890625 C 119.367188 276.914062 119.355469 276.933594 119.355469 276.960938 C 119.355469 276.988281 119.367188 277.007812 119.367188 277.035156 C 119.390625 283.417969 119.539062 289.449219 119.792969 295.082031 C 117.445312 295.269531 115.65625 294.855469 114.472656 293.832031 Z M 120.21875 365.539062 C 119.953125 364.742188 119.28125 362.003906 121.878906 360.027344 C 124.558594 357.984375 127.65625 356.519531 131.335938 355.539062 C 132.113281 355.332031 132.773438 354.820312 133.167969 354.117188 C 133.558594 353.417969 133.652344 352.585938 133.425781 351.820312 C 133.382812 351.679688 131.566406 345.402344 129.660156 333.707031 C 137.757812 334.617188 145.550781 335.101562 153.085938 335.101562 C 160.679688 335.101562 168.027344 334.609375 175.214844 333.683594 C 175.261719 338.5625 175.480469 343.445312 175.878906 348.328125 C 165.367188 349.597656 158.648438 357.21875 157.695312 369.050781 L 125.058594 369.050781 C 122.363281 369.046875 120.792969 367.234375 120.21875 365.539062 Z M 175.894531 366.867188 C 174.679688 368.273438 172.984375 369.046875 171.121094 369.046875 L 163.667969 369.046875 C 164.246094 362.972656 166.921875 355.417969 176.417969 354.234375 C 176.695312 356.742188 177.007812 359.242188 177.375 361.742188 C 177.648438 363.59375 177.105469 365.460938 175.894531 366.867188 Z M 187.539062 288.691406 C 182.945312 288.691406 179.039062 291.941406 178.253906 296.417969 C 176.429688 306.757812 175.433594 317.203125 175.230469 327.679688 C 160.683594 329.621094 145.421875 329.601562 128.742188 327.605469 C 127.070312 315.71875 125.542969 299.675781 125.335938 279.941406 L 130.457031 279.941406 L 130.457031 283.671875 C 130.457031 289.988281 135.597656 295.125 141.914062 295.125 C 148.230469 295.125 153.367188 289.988281 153.367188 283.671875 L 153.367188 279.941406 L 222.585938 279.941406 L 222.585938 281.320312 C 222.585938 285.886719 226.300781 289.601562 230.863281 289.601562 L 249.53125 289.601562 C 249.011719 304.957031 247.726562 317.71875 246.332031 327.609375 C 229.65625 329.601562 214.394531 329.621094 199.855469 327.679688 C 199.644531 317.207031 198.65625 306.761719 196.832031 296.417969 C 196.039062 291.941406 192.132812 288.691406 187.539062 288.691406 Z M 199.179688 366.867188 C 197.96875 365.460938 197.429688 363.59375 197.703125 361.742188 C 198.070312 359.242188 198.382812 356.738281 198.65625 354.234375 C 208.152344 355.417969 210.832031 362.972656 211.410156 369.046875 L 203.957031 369.046875 C 202.09375 369.046875 200.394531 368.273438 199.179688 366.867188 Z M 253.199219 360.027344 C 255.792969 362.003906 255.121094 364.742188 254.855469 365.539062 C 254.285156 367.234375 252.710938 369.046875 250.019531 369.046875 L 217.382812 369.046875 C 216.425781 357.21875 209.710938 349.59375 199.199219 348.324219 C 199.59375 343.445312 199.816406 338.5625 199.863281 333.683594 C 207.054688 334.609375 214.394531 335.101562 221.992188 335.101562 C 229.523438 335.101562 237.320312 334.617188 245.410156 333.707031 C 243.507812 345.398438 241.695312 351.683594 241.65625 351.820312 C 241.429688 352.59375 241.519531 353.421875 241.914062 354.121094 C 242.308594 354.820312 242.96875 355.332031 243.742188 355.542969 C 247.421875 356.519531 250.519531 357.988281 253.199219 360.027344 Z M 275.085938 292.820312 C 274.441406 294.34375 273.15625 295.453125 271.5625 295.859375 C 270.007812 296.257812 268.394531 295.917969 267.121094 294.945312 C 268.71875 291.910156 269.367188 287.832031 269.046875 282.558594 C 268.949219 280.917969 267.554688 279.648438 265.894531 279.769531 C 264.257812 279.867188 263.007812 281.277344 263.105469 282.917969 C 263.429688 288.367188 262.566406 292.140625 260.597656 293.832031 C 259.414062 294.855469 257.628906 295.269531 255.273438 295.085938 C 255.695312 285.871094 255.855469 275.667969 255.585938 264.453125 C 255.570312 263.878906 255.542969 263.320312 255.523438 262.75 C 257.410156 262.921875 259.269531 263.042969 261.085938 263.042969 C 268.203125 263.042969 274.742188 261.683594 280.65625 259.027344 C 280.777344 271.726562 279.023438 283.550781 275.085938 292.820312 Z M 266.96875 187.007812 C 267.347656 185.238281 267.570312 183.40625 267.570312 181.515625 C 267.570312 172.363281 262.832031 164.144531 255.46875 159.804688 C 261.546875 153.496094 266.757812 146.355469 270.90625 138.558594 L 271.039062 194.292969 C 269.753906 191.78125 268.40625 189.335938 266.96875 187.007812 Z M 282.34375 83.226562 C 286.621094 83.226562 290.105469 86.707031 290.105469 90.988281 L 290.105469 113.800781 C 290.105469 118.082031 286.621094 121.5625 282.34375 121.5625 L 277.910156 121.5625 C 277.921875 121.523438 277.933594 121.480469 277.945312 121.441406 C 277.957031 121.398438 277.980469 121.367188 277.988281 121.324219 C 277.992188 121.304688 277.992188 121.28125 277.992188 121.265625 C 280.53125 112.738281 281.917969 103.71875 281.917969 94.382812 C 281.917969 90.605469 281.667969 86.886719 281.234375 83.222656 L 282.34375 83.222656 Z M 187.539062 5.953125 C 231.105469 5.953125 267.390625 37.632812 274.628906 79.160156 C 262.800781 42.925781 228.707031 16.660156 188.570312 16.660156 C 143.421875 16.660156 105.894531 49.882812 99.140625 93.167969 C 99.796875 44.96875 139.1875 5.953125 187.539062 5.953125 Z M 84.96875 90.988281 C 84.96875 86.707031 88.453125 83.226562 92.730469 83.226562 L 93.839844 83.226562 C 93.40625 86.886719 93.15625 90.605469 93.15625 94.382812 C 93.15625 103.832031 94.570312 112.953125 97.164062 121.566406 L 92.730469 121.566406 C 88.453125 121.5625 84.96875 118.082031 84.96875 113.800781 Z M 187.539062 206.4375 C 179.582031 206.4375 173.105469 212.910156 173.105469 220.871094 C 173.105469 228.832031 179.582031 235.304688 187.539062 235.304688 C 195.496094 235.304688 201.972656 228.832031 201.972656 220.871094 C 201.972656 212.914062 195.496094 206.4375 187.539062 206.4375 Z M 187.539062 229.355469 C 182.863281 229.355469 179.054688 225.550781 179.054688 220.871094 C 179.054688 216.195312 182.859375 212.390625 187.539062 212.390625 C 192.21875 212.390625 196.019531 216.195312 196.019531 220.871094 C 196.019531 225.546875 192.214844 229.355469 187.539062 229.355469 Z M 163.320312 45.125 C 157.675781 45.125 153.082031 49.71875 153.082031 55.367188 C 153.082031 61.011719 157.675781 65.605469 163.320312 65.605469 C 168.96875 65.605469 173.5625 61.011719 173.5625 55.367188 C 173.5625 49.71875 168.96875 45.125 163.320312 45.125 Z M 163.320312 59.65625 C 160.957031 59.65625 159.03125 57.730469 159.03125 55.367188 C 159.03125 53 160.957031 51.078125 163.320312 51.078125 C 165.6875 51.078125 167.609375 53 167.609375 55.367188 C 167.609375 57.730469 165.6875 59.65625 163.320312 59.65625 Z M 142.605469 63.03125 C 141.742188 63.332031 140.929688 63.761719 140.207031 64.304688 C 130.507812 71.507812 124.453125 81.832031 122.207031 94.976562 C 121.804688 97.328125 122.339844 99.695312 123.71875 101.644531 C 125.101562 103.589844 127.15625 104.882812 129.5 105.28125 C 129.996094 105.367188 130.5 105.410156 131.003906 105.410156 C 131.992188 105.410156 132.980469 105.246094 133.921875 104.917969 C 137.003906 103.855469 139.257812 101.195312 139.804688 97.984375 C 141.269531 89.398438 144.886719 83.070312 150.855469 78.632812 C 154.804688 75.699219 155.632812 70.097656 152.703125 66.144531 C 150.371094 63.003906 146.3125 61.757812 142.605469 63.03125 Z M 147.304688 73.855469 C 140.050781 79.25 135.675781 86.816406 133.9375 96.984375 C 133.757812 98.054688 133.007812 98.9375 131.980469 99.292969 C 131.980469 99.292969 131.976562 99.292969 131.976562 99.292969 C 131.507812 99.457031 131.007812 99.503906 130.507812 99.414062 C 129.710938 99.28125 129.046875 98.855469 128.582031 98.199219 C 128.121094 97.550781 127.941406 96.761719 128.074219 95.976562 C 130.054688 84.390625 135.332031 75.339844 143.761719 69.074219 C 144.003906 68.894531 144.273438 68.75 144.558594 68.652344 C 144.882812 68.539062 145.214844 68.484375 145.542969 68.484375 C 146.464844 68.484375 147.351562 68.917969 147.929688 69.6875 C 148.902344 71.011719 148.628906 72.882812 147.304688 73.855469 Z M 147.304688 73.855469 " clip-rule="nonzero"/></clipPath><linearGradient x1="36.463001" gradientTransform="matrix(2.97619, 0, 0, 2.97619, 79.017856, 0)" y1="0" x2="36.463001" gradientUnits="userSpaceOnUse" y2="125.999997" id="86c1862d90"><stop stop-opacity="1" stop-color="rgb(100%, 39.99939%, 76.899719%)" offset="0"/><stop stop-opacity="1" stop-color="rgb(99.839783%, 40.0177%, 77.003479%)" offset="0.015625"/><stop stop-opacity="1" stop-color="rgb(99.520874%, 40.054321%, 77.210999%)" offset="0.03125"/><stop stop-opacity="1" stop-color="rgb(99.201965%, 40.092468%, 77.418518%)" offset="0.046875"/><stop stop-opacity="1" stop-color="rgb(98.883057%, 40.130615%, 77.626038%)" offset="0.0625"/><stop stop-opacity="1" stop-color="rgb(98.564148%, 40.167236%, 77.833557%)" offset="0.078125"/><stop stop-opacity="1" stop-color="rgb(98.245239%, 40.205383%, 78.042603%)" offset="0.09375"/><stop stop-opacity="1" stop-color="rgb(97.926331%, 40.242004%, 78.250122%)" offset="0.109375"/><stop stop-opacity="1" stop-color="rgb(97.607422%, 40.280151%, 78.457642%)" offset="0.125"/><stop stop-opacity="1" stop-color="rgb(97.288513%, 40.318298%, 78.665161%)" offset="0.140625"/><stop stop-opacity="1" stop-color="rgb(96.97113%, 40.354919%, 78.872681%)" offset="0.15625"/><stop stop-opacity="1" stop-color="rgb(96.652222%, 40.393066%, 79.081726%)" offset="0.171875"/><stop stop-opacity="1" stop-color="rgb(96.333313%, 40.429688%, 79.289246%)" offset="0.1875"/><stop stop-opacity="1" stop-color="rgb(96.014404%, 40.467834%, 79.496765%)" offset="0.203125"/><stop stop-opacity="1" stop-color="rgb(95.695496%, 40.504456%, 79.704285%)" offset="0.21875"/><stop stop-opacity="1" stop-color="rgb(95.376587%, 40.542603%, 79.911804%)" offset="0.234375"/><stop stop-opacity="1" stop-color="rgb(95.057678%, 40.58075%, 80.12085%)" offset="0.25"/><stop stop-opacity="1" stop-color="rgb(94.73877%, 40.617371%, 80.328369%)" offset="0.265625"/><stop stop-opacity="1" stop-color="rgb(94.419861%, 40.655518%, 80.535889%)" offset="0.28125"/><stop stop-opacity="1" stop-color="rgb(94.100952%, 40.692139%, 80.743408%)" offset="0.296875"/><stop stop-opacity="1" stop-color="rgb(93.783569%, 40.730286%, 80.950928%)" offset="0.3125"/><stop stop-opacity="1" stop-color="rgb(93.464661%, 40.766907%, 81.159973%)" offset="0.328125"/><stop stop-opacity="1" stop-color="rgb(93.145752%, 40.805054%, 81.367493%)" offset="0.34375"/><stop stop-opacity="1" stop-color="rgb(92.826843%, 40.843201%, 81.575012%)" offset="0.359375"/><stop stop-opacity="1" stop-color="rgb(92.507935%, 40.879822%, 81.782532%)" offset="0.375"/><stop stop-opacity="1" stop-color="rgb(92.189026%, 40.917969%, 81.990051%)" offset="0.390625"/><stop stop-opacity="1" stop-color="rgb(91.870117%, 40.95459%, 82.197571%)" offset="0.40625"/><stop stop-opacity="1" stop-color="rgb(91.551208%, 40.992737%, 82.406616%)" offset="0.421875"/><stop stop-opacity="1" stop-color="rgb(91.2323%, 41.029358%, 82.614136%)" offset="0.4375"/><stop stop-opacity="1" stop-color="rgb(90.914917%, 41.067505%, 82.821655%)" offset="0.453125"/><stop stop-opacity="1" stop-color="rgb(90.596008%, 41.105652%, 83.029175%)" offset="0.46875"/><stop stop-opacity="1" stop-color="rgb(90.2771%, 41.142273%, 83.236694%)" offset="0.484375"/><stop stop-opacity="1" stop-color="rgb(89.958191%, 41.18042%, 83.44574%)" offset="0.5"/><stop stop-opacity="1" stop-color="rgb(89.639282%, 41.217041%, 83.653259%)" offset="0.515625"/><stop stop-opacity="1" stop-color="rgb(89.320374%, 41.255188%, 83.860779%)" offset="0.53125"/><stop stop-opacity="1" stop-color="rgb(89.001465%, 41.291809%, 84.068298%)" offset="0.546875"/><stop stop-opacity="1" stop-color="rgb(88.682556%, 41.329956%, 84.275818%)" offset="0.5625"/><stop stop-opacity="1" stop-color="rgb(88.363647%, 41.368103%, 84.484863%)" offset="0.578125"/><stop stop-opacity="1" stop-color="rgb(88.044739%, 41.404724%, 84.692383%)" offset="0.59375"/><stop stop-opacity="1" stop-color="rgb(87.727356%, 41.442871%, 84.899902%)" offset="0.609375"/><stop stop-opacity="1" stop-color="rgb(87.408447%, 41.479492%, 85.107422%)" offset="0.625"/><stop stop-opacity="1" stop-color="rgb(87.089539%, 41.517639%, 85.314941%)" offset="0.640625"/><stop stop-opacity="1" stop-color="rgb(86.77063%, 41.555786%, 85.523987%)" offset="0.65625"/><stop stop-opacity="1" stop-color="rgb(86.451721%, 41.592407%, 85.731506%)" offset="0.671875"/><stop stop-opacity="1" stop-color="rgb(86.132812%, 41.630554%, 85.939026%)" offset="0.6875"/><stop stop-opacity="1" stop-color="rgb(85.813904%, 41.667175%, 86.146545%)" offset="0.703125"/><stop stop-opacity="1" stop-color="rgb(85.494995%, 41.705322%, 86.354065%)" offset="0.71875"/><stop stop-opacity="1" stop-color="rgb(85.176086%, 41.741943%, 86.56311%)" offset="0.734375"/><stop stop-opacity="1" stop-color="rgb(84.857178%, 41.78009%, 86.77063%)" offset="0.75"/><stop stop-opacity="1" stop-color="rgb(84.539795%, 41.818237%, 86.978149%)" offset="0.765625"/><stop stop-opacity="1" stop-color="rgb(84.220886%, 41.854858%, 87.185669%)" offset="0.78125"/><stop stop-opacity="1" stop-color="rgb(83.901978%, 41.893005%, 87.393188%)" offset="0.796875"/><stop stop-opacity="1" stop-color="rgb(83.583069%, 41.929626%, 87.600708%)" offset="0.8125"/><stop stop-opacity="1" stop-color="rgb(83.26416%, 41.967773%, 87.809753%)" offset="0.828125"/><stop stop-opacity="1" stop-color="rgb(82.945251%, 42.004395%, 88.017273%)" offset="0.84375"/><stop stop-opacity="1" stop-color="rgb(82.626343%, 42.042542%, 88.224792%)" offset="0.859375"/><stop stop-opacity="1" stop-color="rgb(82.307434%, 42.080688%, 88.432312%)" offset="0.875"/><stop stop-opacity="1" stop-color="rgb(81.988525%, 42.11731%, 88.639832%)" offset="0.890625"/><stop stop-opacity="1" stop-color="rgb(81.671143%, 42.155457%, 88.848877%)" offset="0.90625"/><stop stop-opacity="1" stop-color="rgb(81.352234%, 42.192078%, 89.056396%)" offset="0.921875"/><stop stop-opacity="1" stop-color="rgb(81.033325%, 42.230225%, 89.263916%)" offset="0.9375"/><stop stop-opacity="1" stop-color="rgb(80.714417%, 42.266846%, 89.471436%)" offset="0.953125"/><stop stop-opacity="1" stop-color="rgb(80.395508%, 42.304993%, 89.678955%)" offset="0.96875"/><stop stop-opacity="1" stop-color="rgb(80.076599%, 42.34314%, 89.888%)" offset="0.984375"/><stop stop-opacity="1" stop-color="rgb(79.75769%, 42.379761%, 90.09552%)" offset="1"/></linearGradient></defs><g clip-path="url(#a63be9b180)"><g clip-path="url(#f8c260b0c2)"><path fill="url(#86c1862d90)" d="M 79.019531 0 L 79.019531 375 L 296.058594 375 L 296.058594 0 Z M 79.019531 0 " fill-rule="nonzero"/></g></g></svg>